<?xml version="1.0" encoding="utf-8"?>
<!-- Generator: Adobe Illustrator 24.2.1, SVG Export Plug-In . SVG Version: 6.00 Build 0)  -->
<svg version="1.1" id="Layer_1" xmlns="http://www.w3.org/2000/svg" xmlns:xlink="http://www.w3.org/1999/xlink" x="0px" y="0px"
	 viewBox="0 0 54.2 59.4" enable-background="new 0 0 54.2 59.4" xml:space="preserve">
<g>
	<path fill="#E30613" d="M2.5,20.9v17.6c0,3.3,1.8,6.4,4.7,8.1l15.2,8.8c2.9,1.7,6.4,1.7,9.3,0L47,46.6c2.9-1.7,4.7-4.7,4.7-8.1
		V20.9c0-3.3-1.8-6.4-4.7-8.1L31.8,4c-2.9-1.7-6.4-1.7-9.3,0L7.2,12.8C4.3,14.5,2.5,17.6,2.5,20.9z"/>
	<g opacity="0.5">
		<path fill="#B50E0B" d="M47,12.8l-6-3.5c0.8,2.8,1.2,5.7,1.2,8.8c0,16.8-13.2,30.6-29.8,31.5l10,5.8c2.9,1.7,6.4,1.7,9.3,0
			L47,46.6c2.9-1.7,4.7-4.7,4.7-8.1V20.9C51.7,17.6,49.9,14.5,47,12.8z"/>
	</g>
</g>
</svg>
