<?xml version="1.0" encoding="utf-8"?>
<!-- Generator: Adobe Illustrator 24.2.1, SVG Export Plug-In . SVG Version: 6.00 Build 0)  -->
<svg version="1.1" id="Layer_1" xmlns="http://www.w3.org/2000/svg" xmlns:xlink="http://www.w3.org/1999/xlink" x="0px" y="0px"
	 viewBox="0 0 54.2 59.4" style="enable-background:new 0 0 54.2 59.4;" xml:space="preserve">
<style type="text/css">
	.st0{fill:#E20613;}
	.st1{fill:#FFFFFF;}
	.st2{opacity:0.5;}
	.st3{fill:#B40E0B;}
</style>
<g>
	<path class="st0" d="M2.5,20.9v17.6c0,3.3,1.8,6.4,4.7,8.1l15.2,8.8c2.9,1.7,6.4,1.7,9.3,0L47,46.6c2.9-1.7,4.7-4.7,4.7-8.1V20.9
		c0-3.3-1.8-6.4-4.7-8.1L31.8,4c-2.9-1.7-6.4-1.7-9.3,0L7.2,12.8C4.3,14.5,2.5,17.6,2.5,20.9z"/>
	<path class="st1" d="M45.8,29.5c-1.8,1.5-4.8,4-7.3,4c-1.1,0-2.3-0.5-2.2-1.8l0.1-0.8c6.7-2.2,8.4-4.8,8.4-6.5
		c0-1.4-1.4-1.7-2.5-1.7c-3.7,0-7.8,3.2-9.1,6.8c-4.2,2.8-4.5,2.8-5.3,3c-0.4,0.1-0.9-0.5-0.8-0.9c0-0.8,0.2-1.4,3-4.4
		c0.4-0.4,1.1-1.2,1.1-1.8c0-0.5-0.4-1-0.6-1.4c-0.1-0.1-0.5-1-0.7-1c-0.4,0-1.3,0.7-1.6,1l-7.7,6.1l-0.1-0.1
		c0.8-1.4,3.2-4.2,3.2-5.7c0-0.9-0.5-1.6-1.4-1.6c-2.3,0-8.5,6.2-10.2,8c-0.1,0.1-0.5,0.6-0.7,0.6c-0.1,0-0.2-0.2-0.2-0.3
		c0-0.7,0.6-1.3,1-1.8c0.5-0.8,1.3-1.4,1.9-2.1c0.4-0.5,1.4-1.5,1.4-2.2c0-0.7-1-0.7-1.6-0.8C11.8,23.9,8.1,28.6,8,32
		c0,1.3,0.5,4,2.2,4c0.6,0,1.1-0.5,1.5-1c1.6-2,3.6-4.1,5.4-6c0.2-0.2,1-1.1,1.4-1.1c0.1,0,0.2,0.1,0.2,0.2c0,0.1-0.1,0.4-0.2,0.5
		c-2.3,3.5-3.1,5.1-3.1,6.1c0,0.8,0.7,1.5,1.5,1.5c1.2,0,2.4-1.4,3.2-2.2l5.5-5.1l0.1,0.1c-0.9,1.4-2.6,3.9-2.6,5.7c0,1,0.7,2,1.8,2
		c1.7,0,5.8-3.2,7.9-4.8c0,0.1,0,0.2,0,0.3c0.1,2.3,1.3,4.6,3.8,4.6c3.5,0,7.3-3.3,9.4-5.8L45.8,29.5z M41.4,24.8
		c0.2-0.1,0.4,0.1,0.4,0.4c0,0.6-2.1,3-5.1,4C37.6,27,39.7,25.3,41.4,24.8z"/>
	<g class="st2">
		<path class="st3" d="M47,12.8l-6-3.5c0.8,2.8,1.2,5.7,1.2,8.8c0,16.8-13.2,30.6-29.8,31.5l10,5.8c2.9,1.7,6.4,1.7,9.3,0L47,46.6
			c2.9-1.7,4.7-4.7,4.7-8.1V20.9C51.7,17.6,49.9,14.5,47,12.8z"/>
	</g>
</g>
</svg>
