<?xml version="1.0" encoding="utf-8"?>
<!-- Generator: Adobe Illustrator 24.2.1, SVG Export Plug-In . SVG Version: 6.00 Build 0)  -->
<svg version="1.1" id="Layer_1" xmlns="http://www.w3.org/2000/svg" xmlns:xlink="http://www.w3.org/1999/xlink" x="0px" y="0px"
	 viewBox="0 0 162.6 61.3" enable-background="new 0 0 162.6 61.3" xml:space="preserve">
<g>
	<path fill="#FFFFFF" d="M13.5,38.5V36l2.3-0.7V22.1h-2.6l-0.7,2.6H9.9v-5.8l16.1-0.1v5.9h-2.6l-0.7-2.6h-2.6v13.2l2.3,0.7v2.4H13.5
		z"/>
	<path fill="#FFFFFF" d="M27,18.8h6.3V25c1.5-1.3,3.1-1.9,4.7-1.9c1.4,0,2.5,0.4,3.2,1.3s1.1,2.1,1.1,3.7v7.4l1.9,0.7v2.2h-7.5v-2.2
		l1.4-0.7v-6.8c0-1.5-0.6-2.2-1.8-2.2c-0.5,0-0.9,0.1-1.4,0.4c-0.5,0.3-0.9,0.5-1.2,0.7l-0.4,0.4v7.5l1.5,0.7v2.2H27v-2.2l2.2-0.7
		V21.8L27,21.3V18.8z"/>
	<path fill="#FFFFFF" d="M60.8,38.3l-5.5,0.2l-0.5-1.8c-0.2,0.1-0.4,0.3-0.7,0.6c-0.3,0.2-0.8,0.5-1.6,0.9c-0.8,0.4-1.5,0.6-2.2,0.6
		c-1.4,0-2.4-0.4-3.2-1.1c-0.8-0.8-1.1-1.8-1.1-3.2c0-3.1,2.2-4.6,6.7-4.6h1.9v-1.5c0-1.4-0.7-2.1-2.1-2.1c-0.4,0-0.8,0-1.3,0.1
		s-0.7,0.1-0.9,0.2L50,26.6l-0.4,1.8h-2.5l-0.2-4.1c2.2-0.7,4.3-1.1,6-1.1c2.1,0,3.6,0.4,4.5,1.2c0.9,0.8,1.3,2.3,1.3,4.3v6.9
		l2.1,0.5V38.3z M49.9,34c0,1.1,0.5,1.7,1.6,1.7c0.4,0,0.9-0.1,1.4-0.4c0.5-0.3,0.9-0.5,1.2-0.8l0.4-0.4v-1.9H53
		c-1.1,0-1.9,0.1-2.3,0.4C50.2,32.9,49.9,33.3,49.9,34z"/>
	<path fill="#FFFFFF" d="M68.5,38.7c-1.5,0-2.6-0.5-3.2-1.5s-0.9-2.7-0.9-5.2v-5.2h-2.6v-2.6l2.6-0.4v-4.3l4.1-0.8v5h3.9v3h-3.9v6.3
		c0,0.9,0.1,1.6,0.3,1.9s0.6,0.6,1.2,0.6c0.7,0,1.4-0.2,2.2-0.6l1,2C71.6,38.2,70,38.7,68.5,38.7z"/>
	<path fill="#FFFFFF" d="M74.9,24.9c1.1-1.5,1.7-2.6,1.7-3.3c0-0.2-0.1-0.6-0.4-1.1c-0.3-0.5-0.4-1-0.4-1.5c0-0.7,0.2-1.3,0.7-1.8
		s1-0.7,1.7-0.7c0.7,0,1.3,0.2,1.7,0.7c0.4,0.4,0.6,1.1,0.6,1.9c0,2.1-1.3,4.5-3.8,7.3L74.9,24.9z"/>
	<path fill="#FFFFFF" d="M85.9,33.6l0.2,1.9c0.6,0.2,1.4,0.3,2.3,0.3c1.5,0,2.2-0.5,2.2-1.5c0-0.4-0.3-0.8-0.8-1.1
		c-0.5-0.3-1.1-0.6-1.8-0.8s-1.4-0.5-2.2-0.8c-0.7-0.3-1.3-0.8-1.8-1.4c-0.5-0.6-0.8-1.4-0.8-2.3c0-1.6,0.5-2.8,1.6-3.6
		c1.1-0.8,2.5-1.2,4.1-1.2c0.7,0,1.5,0.1,2.4,0.2c0.9,0.1,1.5,0.3,2,0.4l0.7,0.2c0,0.9-0.1,2.3-0.1,4.2h-2.5l-0.4-1.8
		c-0.5-0.2-1.1-0.3-1.8-0.3c-0.6,0-1,0.1-1.4,0.4c-0.3,0.3-0.5,0.6-0.5,1c0,0.4,0.3,0.8,0.8,1.1s1.1,0.6,1.8,0.8
		c0.7,0.2,1.4,0.5,2.2,0.8s1.3,0.7,1.9,1.3c0.5,0.6,0.8,1.4,0.8,2.3c0,1.6-0.6,2.8-1.7,3.7s-2.7,1.3-4.7,1.3c-0.8,0-1.6-0.1-2.5-0.2
		c-0.9-0.1-1.5-0.2-2-0.3l-0.7-0.2v-4.5H85.9z"/>
</g>
<g>
	<path fill="#E30613" d="M103.6,21.9v17.6c0,3.3,1.8,6.4,4.7,8.1l15.2,8.8c2.9,1.7,6.4,1.7,9.3,0l15.2-8.8c2.9-1.7,4.7-4.7,4.7-8.1
		V21.9c0-3.3-1.8-6.4-4.7-8.1L132.8,5c-2.9-1.7-6.4-1.7-9.3,0l-15.2,8.8C105.4,15.4,103.6,18.5,103.6,21.9z"/>
	<path fill="#FFFFFF" d="M146.9,30.5c-1.8,1.5-4.8,4-7.3,4c-1.1,0-2.3-0.5-2.2-1.8l0.1-0.8c6.7-2.2,8.4-4.8,8.4-6.5
		c0-1.4-1.4-1.7-2.5-1.7c-3.7,0-7.8,3.2-9.1,6.8c-4.2,2.8-4.5,2.8-5.3,3c-0.4,0.1-0.9-0.5-0.8-0.9c0-0.8,0.2-1.4,3-4.4
		c0.4-0.4,1.1-1.2,1.1-1.8c0-0.5-0.4-1-0.6-1.4c-0.1-0.1-0.5-1-0.7-1c-0.4,0-1.3,0.7-1.6,1l-7.7,6.1l-0.1-0.1
		c0.8-1.4,3.2-4.2,3.2-5.7c0-0.9-0.5-1.6-1.4-1.6c-2.3,0-8.5,6.2-10.2,8c-0.1,0.1-0.5,0.6-0.7,0.6c-0.1,0-0.2-0.2-0.2-0.3
		c0-0.7,0.6-1.3,1-1.8c0.5-0.8,1.3-1.4,1.9-2.1c0.4-0.5,1.4-1.5,1.4-2.2c0-0.7-1-0.7-1.6-0.8c-2.1-0.3-5.8,4.4-5.8,7.8
		c0,1.3,0.5,4,2.2,4c0.6,0,1.1-0.5,1.5-1c1.6-2,3.6-4.1,5.4-6c0.2-0.2,1-1.1,1.4-1.1c0.1,0,0.2,0.1,0.2,0.2c0,0.1-0.1,0.4-0.2,0.5
		c-2.3,3.5-3.1,5.1-3.1,6.1c0,0.8,0.7,1.5,1.5,1.5c1.2,0,2.4-1.4,3.2-2.2l5.5-5.1l0.1,0.1c-0.9,1.4-2.6,3.9-2.6,5.7c0,1,0.7,2,1.8,2
		c1.7,0,5.8-3.2,7.9-4.8c0,0.1,0,0.2,0,0.3c0.1,2.3,1.3,4.6,3.8,4.6c3.5,0,7.3-3.3,9.4-5.8L146.9,30.5z M142.5,25.8
		c0.2-0.1,0.4,0.1,0.4,0.4c0,0.6-2.1,3-5.1,4C138.7,27.9,140.7,26.2,142.5,25.8z"/>
	<g opacity="0.5">
		<path fill="#B50E0B" d="M148,13.8l-6-3.5c0.8,2.8,1.2,5.7,1.2,8.8c0,16.8-13.2,30.6-29.8,31.5l10,5.8c2.9,1.7,6.4,1.7,9.3,0
			l15.2-8.8c2.9-1.7,4.7-4.7,4.7-8.1V21.9C152.7,18.5,150.9,15.4,148,13.8z"/>
	</g>
</g>
</svg>
